<svg width="16" height="12" viewBox="0 0 16 12" fill="none" xmlns="http://www.w3.org/2000/svg">
<path d="M13.3337 0.333344H2.66699C2.13656 0.333344 1.62785 0.544057 1.25278 0.91913C0.877706 1.2942 0.666992 1.80291 0.666992 2.33334V11C0.666992 11.1768 0.73723 11.3464 0.862254 11.4714C0.987279 11.5964 1.15685 11.6667 1.33366 11.6667H4.00033C4.11013 11.6661 4.21809 11.6384 4.31463 11.5861C4.41116 11.5338 4.49327 11.4584 4.55366 11.3667L5.69366 9.66668H10.307L11.447 11.3667C11.5074 11.4584 11.5895 11.5338 11.686 11.5861C11.7826 11.6384 11.8905 11.6661 12.0003 11.6667H14.667C14.8438 11.6667 15.0134 11.5964 15.1384 11.4714C15.2634 11.3464 15.3337 11.1768 15.3337 11V2.33334C15.3337 1.80291 15.1229 1.2942 14.7479 0.91913C14.3728 0.544057 13.8641 0.333344 13.3337 0.333344ZM14.0003 10.3333H12.3603L11.2203 8.66668C11.1639 8.56878 11.0835 8.48682 10.9867 8.42851C10.8899 8.37021 10.7799 8.33746 10.667 8.33334H5.33366C5.22385 8.33391 5.11589 8.36159 5.01936 8.41393C4.92283 8.46627 4.84072 8.54164 4.78033 8.63334L3.64033 10.3333H2.00033V7.00001H14.0003V10.3333ZM4.66699 5.66668V5.00001C4.66699 4.8232 4.73723 4.65363 4.86225 4.52861C4.98728 4.40358 5.15685 4.33334 5.33366 4.33334H6.66699C6.8438 4.33334 7.01337 4.40358 7.1384 4.52861C7.26342 4.65363 7.33366 4.8232 7.33366 5.00001V5.66668H4.66699ZM8.66699 5.66668V5.00001C8.66699 4.8232 8.73723 4.65363 8.86225 4.52861C8.98728 4.40358 9.15685 4.33334 9.33366 4.33334H10.667C10.8438 4.33334 11.0134 4.40358 11.1384 4.52861C11.2634 4.65363 11.3337 4.8232 11.3337 5.00001V5.66668H8.66699ZM14.0003 5.66668H12.667V5.00001C12.667 4.46958 12.4563 3.96087 12.0812 3.5858C11.7061 3.21072 11.1974 3.00001 10.667 3.00001H9.33366C8.84029 3.00295 8.36542 3.18815 8.00033 3.52001C7.63523 3.18815 7.16036 3.00295 6.66699 3.00001H5.33366C4.80323 3.00001 4.29452 3.21072 3.91945 3.5858C3.54437 3.96087 3.33366 4.46958 3.33366 5.00001V5.66668H2.00033V2.33334C2.00033 2.15653 2.07056 1.98696 2.19559 1.86194C2.32061 1.73691 2.49018 1.66668 2.66699 1.66668H13.3337C13.5105 1.66668 13.68 1.73691 13.8051 1.86194C13.9301 1.98696 14.0003 2.15653 14.0003 2.33334V5.66668Z" fill="#5D5D5D"/>
</svg>
