<svg width="14" height="14" viewBox="0 0 14 14" fill="none" xmlns="http://www.w3.org/2000/svg">
<path d="M7.00065 6.33333C6.82384 6.33333 6.65427 6.40357 6.52925 6.52859C6.40423 6.65361 6.33399 6.82318 6.33399 7V9.66666C6.33399 9.84347 6.40423 10.013 6.52925 10.1381C6.65427 10.2631 6.82384 10.3333 7.00065 10.3333C7.17746 10.3333 7.34703 10.2631 7.47206 10.1381C7.59708 10.013 7.66732 9.84347 7.66732 9.66666V7C7.66732 6.82318 7.59708 6.65361 7.47206 6.52859C7.34703 6.40357 7.17746 6.33333 7.00065 6.33333ZM7.25399 3.72C7.09168 3.65332 6.90963 3.65332 6.74732 3.72C6.66549 3.75172 6.59072 3.7993 6.52732 3.85999C6.46843 3.9248 6.42108 3.99921 6.38732 4.07999C6.35 4.15911 6.33173 4.24588 6.33399 4.33333C6.33348 4.42107 6.3503 4.50804 6.38347 4.58927C6.41665 4.67049 6.46553 4.74437 6.52732 4.80666C6.59212 4.86555 6.66653 4.9129 6.74732 4.94666C6.84832 4.98816 6.95796 5.00421 7.06662 4.9934C7.17527 4.9826 7.27961 4.94528 7.37046 4.88471C7.46131 4.82414 7.5359 4.74218 7.58766 4.64604C7.63942 4.5499 7.66678 4.44252 7.66732 4.33333C7.66487 4.15682 7.59581 3.98775 7.47399 3.85999C7.41058 3.7993 7.33582 3.75172 7.25399 3.72ZM7.00065 0.333328C5.68211 0.333328 4.39318 0.724321 3.29685 1.45686C2.20052 2.18941 1.34604 3.2306 0.841457 4.44877C0.336873 5.66695 0.204851 7.00739 0.462086 8.3006C0.71932 9.5938 1.35426 10.7817 2.28661 11.714C3.21896 12.6464 4.40685 13.2813 5.70005 13.5386C6.99326 13.7958 8.3337 13.6638 9.55188 13.1592C10.7701 12.6546 11.8112 11.8001 12.5438 10.7038C13.2763 9.60747 13.6673 8.31854 13.6673 7C13.6673 6.12452 13.4949 5.25761 13.1599 4.44877C12.8248 3.63993 12.3338 2.90501 11.7147 2.28595C11.0956 1.66689 10.3607 1.17583 9.55188 0.840798C8.74304 0.505767 7.87613 0.333328 7.00065 0.333328ZM7.00065 12.3333C5.94582 12.3333 4.91467 12.0205 4.03761 11.4345C3.16055 10.8485 2.47696 10.0155 2.0733 9.04097C1.66963 8.06643 1.56401 6.99408 1.7698 5.95951C1.97559 4.92495 2.48354 3.97464 3.22942 3.22876C3.9753 2.48288 4.92561 1.97493 5.96017 1.76914C6.99474 1.56335 8.06709 1.66897 9.04163 2.07264C10.0162 2.47631 10.8491 3.15989 11.4352 4.03695C12.0212 4.91402 12.334 5.94516 12.334 7C12.334 8.41448 11.7721 9.77104 10.7719 10.7712C9.7717 11.7714 8.41514 12.3333 7.00065 12.3333Z" fill="#858685"/>
</svg>
