<svg width="12" height="14" viewBox="0 0 12 14" fill="none" xmlns="http://www.w3.org/2000/svg">
<path d="M5.99998 3.33333C6.26368 3.33333 6.52147 3.25513 6.74074 3.10863C6.96 2.96212 7.1309 2.75388 7.23181 2.51024C7.33273 2.26661 7.35914 1.99852 7.30769 1.73988C7.25624 1.48124 7.12925 1.24366 6.94278 1.05719C6.75631 0.870721 6.51874 0.743733 6.2601 0.692286C6.00145 0.640839 5.73337 0.667244 5.48973 0.768161C5.2461 0.869077 5.03786 1.03997 4.89135 1.25924C4.74484 1.47851 4.66664 1.73629 4.66664 2C4.66664 2.35362 4.80712 2.69276 5.05717 2.94281C5.30721 3.19286 5.64635 3.33333 5.99998 3.33333ZM11 12.6667H10.3333V9.33333C10.3333 9.15652 10.2631 8.98695 10.138 8.86193C10.013 8.73691 9.84345 8.66667 9.66664 8.66667H6.33331V7.33333H9.66664C9.84345 7.33333 10.013 7.2631 10.138 7.13807C10.2631 7.01305 10.3333 6.84348 10.3333 6.66667C10.3333 6.48986 10.2631 6.32029 10.138 6.19526C10.013 6.07024 9.84345 6 9.66664 6H6.33331V4.66667C6.33331 4.48986 6.26307 4.32029 6.13805 4.19526C6.01302 4.07024 5.84345 4 5.66664 4C5.48983 4 5.32026 4.07024 5.19524 4.19526C5.07021 4.32029 4.99998 4.48986 4.99998 4.66667V9.33333C4.99998 9.51014 5.07021 9.67971 5.19524 9.80474C5.32026 9.92976 5.48983 10 5.66664 10H8.99998V13.3333C8.99998 13.5101 9.07021 13.6797 9.19524 13.8047C9.32026 13.9298 9.48983 14 9.66664 14H11C11.1768 14 11.3464 13.9298 11.4714 13.8047C11.5964 13.6797 11.6666 13.5101 11.6666 13.3333C11.6666 13.1565 11.5964 12.987 11.4714 12.8619C11.3464 12.7369 11.1768 12.6667 11 12.6667ZM6.46664 11.6C6.13083 12.0477 5.66265 12.3785 5.12842 12.5454C4.59419 12.7122 4.021 12.7068 3.49003 12.5298C2.95907 12.3528 2.49725 12.0133 2.17 11.5592C1.84274 11.1052 1.66664 10.5597 1.66664 10C1.66743 9.48182 1.81917 8.97509 2.10332 8.54176C2.38747 8.10843 2.79172 7.76727 3.26664 7.56C3.42931 7.48928 3.55722 7.35683 3.62223 7.1918C3.68724 7.02677 3.68403 6.84267 3.61331 6.68C3.54258 6.51733 3.41014 6.38943 3.24511 6.32441C3.08007 6.2594 2.89597 6.26261 2.73331 6.33333C2.17231 6.5783 1.67501 6.94875 1.27973 7.41617C0.884443 7.88359 0.601711 8.43549 0.453308 9.02938C0.304905 9.62327 0.29479 10.2433 0.423742 10.8417C0.552694 11.4401 0.817273 12.001 1.1971 12.481C1.57693 12.9611 2.06188 13.3476 2.61459 13.6107C3.1673 13.8738 3.77303 14.0066 4.38513 13.9988C4.99723 13.9909 5.59937 13.8427 6.14517 13.5656C6.69098 13.2884 7.16588 12.8896 7.53331 12.4C7.6394 12.2586 7.68495 12.0808 7.65994 11.9057C7.63494 11.7307 7.54142 11.5728 7.39998 11.4667C7.25853 11.3606 7.08073 11.315 6.90569 11.34C6.73066 11.365 6.57273 11.4586 6.46664 11.6Z" fill="black"/>
</svg>
